<svg xmlns="http://www.w3.org/2000/svg" version="1.1" xmlns:xlink="http://www.w3.org/1999/xlink" xmlns:svgjs="http://svgjs.com/svgjs" width="1440" height="560" preserveAspectRatio="none" viewBox="0 0 1440 560"><g mask="url(&quot;#SvgjsMask1000&quot;)" fill="none"><rect width="1440" height="560" x="0" y="0" fill="#0e2a47"></rect><path d="M 0,9 C 57.6,79 172.8,322.6 288,359 C 403.2,395.4 460.8,162.8 576,191 C 691.2,219.2 748.8,484.4 864,500 C 979.2,515.6 1036.8,277.6 1152,269 C 1267.2,260.4 1382.4,419.4 1440,457L1440 560L0 560z" fill="#184a7e"></path><path d="M 0,448 C 96,366.8 288,48.8 480,42 C 672,35.2 768,370.2 960,414 C 1152,457.8 1344,291.6 1440,261L1440 560L0 560z" fill="#2264ab"></path></g><defs><mask id="SvgjsMask1000"><rect width="1440" height="560" fill="#ffffff"></rect></mask></defs></svg>